# xmcd
#
# Track frame offsets: 
#        150
#        19402
#        37399
#        61540
#        81365
#        103926
#        123977
#        141890
#        160017
#        178942
#        196267
#        214726
#        230677
#        249150
#        284472
#
# Disc length: 4440 seconds
#
# Revision: 4
# Processed by: cddbd v1.5.2PL0 Copyright (c) Steve Scherf et al.
# Submitted via: ExactAudioCopy v1.0b3
#
DISCID=db11560f
DTITLE=Franziska - Mit All Meinem Wesen
DYEAR=2003
DGENRE=Soul
TTITLE0=Auch Wenn Ich Mich Frage
TTITLE1=Schau Mir Ins Gesicht
TTITLE2=Steh Einfach Auf
TTITLE3=Unbeschreiblich
TTITLE4=Halt Mich Fest
TTITLE5=Du Sagst
TTITLE6=In Deinen Armen
TTITLE7=Du Liebst Mich Nicht
TTITLE8=Mit All Meinem Wesen
TTITLE9=Du Fehlst Mir
TTITLE10=Hab Kein Recht
TTITLE11=Sag Mir Wer Du Bist
TTITLE12=Deine Hände
TTITLE13=Schenk Mir Deine Liebe
TTITLE14=Data Track
EXTD=YEAR: 2003
EXTT0=
EXTT1=
EXTT2=
EXTT3=
EXTT4=
EXTT5=
EXTT6=
EXTT7=
EXTT8=
EXTT9=
EXTT10=
EXTT11=
EXTT12=
EXTT13=
EXTT14=
PLAYORDER=
